<svg xmlns="http://www.w3.org/2000/svg" xmlns:xlink="http://www.w3.org/1999/xlink" width="500" zoomAndPan="magnify" viewBox="0 0 375 112.499997" height="150" preserveAspectRatio="xMidYMid meet" version="1.0"><defs><g/><clipPath id="44472a5bc5"><path d="M 154 11 L 172.996094 11 L 172.996094 33 L 154 33 Z M 154 11 " clip-rule="nonzero"/></clipPath><clipPath id="d5139ee1dc"><rect x="0" width="173" y="0" height="42"/></clipPath><clipPath id="acbd35ef11"><path d="M 0.828125 0 L 374.167969 0 L 374.167969 94 L 0.828125 94 Z M 0.828125 0 " clip-rule="nonzero"/></clipPath><clipPath id="ac4d55a899"><rect x="0" width="375" y="0" height="94"/></clipPath></defs><g transform="matrix(1, 0, 0, 1, 186, 66)"><g clip-path="url(#d5139ee1dc)"><g fill="#ffc800" fill-opacity="1"><g transform="translate(0.904662, 33.002335)"><g><path d="M 15.75 -2.859375 L 8.0625 -2.859375 L 6.59375 0 L 0.9375 0 L 11.921875 -20.390625 L 22.875 0 L 17.21875 0 Z M 13.78125 -6.6875 L 11.921875 -10.265625 L 10.046875 -6.6875 Z M 13.78125 -6.6875 "/></g></g></g><g fill="#ffc800" fill-opacity="1"><g transform="translate(24.718639, 33.002335)"><g><path d="M 10.734375 -20.390625 C 13.054688 -20.390625 14.894531 -19.628906 16.25 -18.109375 C 17.425781 -16.765625 18.015625 -15.203125 18.015625 -13.421875 C 18.015625 -11.691406 17.46875 -10.175781 16.375 -8.875 C 15.019531 -7.289062 13.117188 -6.5 10.671875 -6.5 L 5.828125 -6.5 L 5.828125 0 L 0.9375 0 L 0.9375 -20.390625 Z M 13.015625 -11.703125 C 13.222656 -11.953125 13.378906 -12.242188 13.484375 -12.578125 C 13.566406 -12.867188 13.609375 -13.148438 13.609375 -13.421875 C 13.609375 -13.703125 13.554688 -14 13.453125 -14.3125 C 13.328125 -14.644531 13.160156 -14.9375 12.953125 -15.1875 C 12.472656 -15.726562 11.734375 -16 10.734375 -16 L 5.828125 -16 L 5.828125 -10.890625 L 10.671875 -10.890625 C 11.316406 -10.890625 11.859375 -10.984375 12.296875 -11.171875 C 12.585938 -11.335938 12.828125 -11.515625 13.015625 -11.703125 Z M 13.015625 -11.703125 "/></g></g></g><g fill="#ffc800" fill-opacity="1"><g transform="translate(43.04191, 33.002335)"><g><path d="M 5.359375 -16 L 5.359375 0 L 0.46875 0 L 0.46875 -20.390625 L 13.109375 -20.390625 L 13.109375 -16 Z M 5.359375 -16 "/></g></g></g><g fill="#ffc800" fill-opacity="1"><g transform="translate(56.627486, 33.002335)"><g><path d="M 10.828125 -20.296875 C 13.734375 -20.296875 16.210938 -19.269531 18.265625 -17.21875 C 20.304688 -15.175781 21.328125 -12.695312 21.328125 -9.78125 C 21.328125 -6.875 20.304688 -4.398438 18.265625 -2.359375 C 16.210938 -0.304688 13.734375 0.71875 10.828125 0.71875 C 7.921875 0.71875 5.441406 -0.304688 3.390625 -2.359375 C 1.335938 -4.398438 0.3125 -6.875 0.3125 -9.78125 C 0.3125 -12.695312 1.335938 -15.175781 3.390625 -17.21875 C 5.441406 -19.269531 7.921875 -20.296875 10.828125 -20.296875 Z M 15.15625 -5.453125 C 16.34375 -6.648438 16.9375 -8.09375 16.9375 -9.78125 C 16.9375 -11.476562 16.34375 -12.925781 15.15625 -14.125 C 13.957031 -15.3125 12.515625 -15.90625 10.828125 -15.90625 C 9.128906 -15.90625 7.6875 -15.3125 6.5 -14.125 C 5.300781 -12.925781 4.703125 -11.476562 4.703125 -9.78125 C 4.703125 -8.09375 5.300781 -6.648438 6.5 -5.453125 C 7.726562 -4.265625 9.171875 -3.671875 10.828125 -3.671875 C 12.472656 -3.671875 13.914062 -4.265625 15.15625 -5.453125 Z M 15.15625 -5.453125 "/></g></g></g><g fill="#ffc800" fill-opacity="1"><g transform="translate(78.276559, 33.002335)"><g><path d="M 10.671875 -15.5 L 10.671875 0 L 5.765625 0 L 5.765625 -15.5 L 0.46875 -15.5 L 0.46875 -20.390625 L 15.96875 -20.390625 L 15.96875 -15.5 Z M 10.671875 -15.5 "/></g></g></g><g fill="#ffc800" fill-opacity="1"><g transform="translate(94.717296, 33.002335)"><g><path d="M 10.734375 -20.390625 C 13.054688 -20.390625 14.894531 -19.628906 16.25 -18.109375 C 17.425781 -16.765625 18.015625 -15.203125 18.015625 -13.421875 C 18.015625 -11.691406 17.46875 -10.175781 16.375 -8.875 C 15.019531 -7.289062 13.117188 -6.5 10.671875 -6.5 L 5.828125 -6.5 L 5.828125 0 L 0.9375 0 L 0.9375 -20.390625 Z M 13.015625 -11.703125 C 13.222656 -11.953125 13.378906 -12.242188 13.484375 -12.578125 C 13.566406 -12.867188 13.609375 -13.148438 13.609375 -13.421875 C 13.609375 -13.703125 13.554688 -14 13.453125 -14.3125 C 13.328125 -14.644531 13.160156 -14.9375 12.953125 -15.1875 C 12.472656 -15.726562 11.734375 -16 10.734375 -16 L 5.828125 -16 L 5.828125 -10.890625 L 10.671875 -10.890625 C 11.316406 -10.890625 11.859375 -10.984375 12.296875 -11.171875 C 12.585938 -11.335938 12.828125 -11.515625 13.015625 -11.703125 Z M 13.015625 -11.703125 "/></g></g></g><g fill="#ffc800" fill-opacity="1"><g transform="translate(113.04057, 33.002335)"><g><path d="M 15.75 -2.859375 L 8.0625 -2.859375 L 6.59375 0 L 0.9375 0 L 11.921875 -20.390625 L 22.875 0 L 17.21875 0 Z M 13.78125 -6.6875 L 11.921875 -10.265625 L 10.046875 -6.6875 Z M 13.78125 -6.6875 "/></g></g></g><g fill="#ffc800" fill-opacity="1"><g transform="translate(136.854553, 33.002335)"><g><path d="M 16.875 -20.390625 L 16.875 0 L 11.984375 0 L 11.984375 -8 L 5.828125 -8 L 5.828125 0 L 0.9375 0 L 0.9375 -20.390625 L 5.828125 -20.390625 L 5.828125 -12.390625 L 11.984375 -12.390625 L 11.984375 -20.390625 Z M 16.875 -20.390625 "/></g></g></g><g clip-path="url(#44472a5bc5)"><g fill="#ffc800" fill-opacity="1"><g transform="translate(154.675811, 33.002335)"><g><path d="M 17.59375 -2.578125 C 15.613281 -0.921875 13.347656 -0.09375 10.796875 -0.09375 C 7.910156 -0.09375 5.441406 -1.117188 3.390625 -3.171875 C 1.335938 -5.222656 0.3125 -7.691406 0.3125 -10.578125 C 0.3125 -13.484375 1.335938 -15.960938 3.390625 -18.015625 C 5.441406 -20.054688 7.910156 -21.078125 10.796875 -21.078125 C 13.367188 -21.078125 15.632812 -20.242188 17.59375 -18.578125 L 14.46875 -15.46875 C 13.394531 -16.28125 12.171875 -16.6875 10.796875 -16.6875 C 9.117188 -16.6875 7.6875 -16.09375 6.5 -14.90625 C 5.300781 -13.707031 4.703125 -12.265625 4.703125 -10.578125 C 4.703125 -8.898438 5.300781 -7.46875 6.5 -6.28125 C 7.6875 -5.082031 9.117188 -4.484375 10.796875 -4.484375 C 12.171875 -4.484375 13.394531 -4.890625 14.46875 -5.703125 Z M 17.59375 -2.578125 "/></g></g></g></g></g></g><g clip-path="url(#acbd35ef11)"><g transform="matrix(1, 0, 0, 1, 0.000000000000000111, 0)"><g clip-path="url(#ac4d55a899)"><g fill="#ffc800" fill-opacity="1"><g transform="translate(0.829651, 74.117367)"><g><path d="M 3.921875 -52.84375 L 35.546875 -52.84375 L 35.546875 0 L 24.078125 0 L 24.078125 -44.484375 L 15.390625 -44.484375 L 15.390625 0 L 3.921875 0 Z M 3.921875 -52.84375 "/></g></g></g><g fill="#ffc800" fill-opacity="1"><g transform="translate(40.296444, 74.117367)"><g><path d="M 7.5625 -30.53125 L 0.390625 -30.53125 L 0.390625 -37.703125 L 18.140625 -37.703125 L 18.140625 -22.578125 L 18.53125 -22.578125 C 24.007812 -22.578125 28.039062 -21.726562 30.625 -20.03125 C 33.21875 -18.332031 34.515625 -15.332031 34.515625 -11.03125 C 34.515625 -7.070312 33.285156 -4.242188 30.828125 -2.546875 C 28.367188 -0.847656 24.289062 0 18.59375 0 L 7.5625 0 Z M 18.390625 -6.0625 C 20.785156 -6.101562 22.460938 -6.472656 23.421875 -7.171875 C 24.378906 -7.867188 24.859375 -9.128906 24.859375 -10.953125 C 24.859375 -13.003906 24.378906 -14.398438 23.421875 -15.140625 C 22.460938 -15.878906 20.832031 -16.269531 18.53125 -16.3125 L 18.140625 -16.3125 L 18.140625 -6.0625 Z M 18.390625 -6.0625 "/></g></g></g><g fill="#ffc800" fill-opacity="1"><g transform="translate(74.674953, 74.117367)"><g><path d="M 7.890625 -30.53125 L 1.046875 -30.53125 L 1.046875 -37.703125 L 25.3125 -37.703125 L 25.3125 -30.53125 L 18.46875 -30.53125 L 18.46875 0 L 7.890625 0 Z M 7.890625 -30.53125 "/></g></g></g><g fill="#ffc800" fill-opacity="1"><g transform="translate(101.094856, 74.117367)"><g><path d="M 3.328125 -37.703125 L 13.953125 -37.703125 L 13.953125 -23.09375 L 20.28125 -23.09375 L 20.28125 -37.703125 L 30.984375 -37.703125 L 30.984375 0 L 20.28125 0 L 20.28125 -15.78125 L 13.953125 -15.78125 L 13.953125 0 L 3.328125 0 Z M 3.328125 -37.703125 "/></g></g></g><g fill="#ffc800" fill-opacity="1"><g transform="translate(135.342898, 74.117367)"><g><path d="M 11.09375 0.65625 C 9.257812 0.65625 7.679688 0.210938 6.359375 -0.671875 C 5.035156 -1.566406 4.035156 -2.722656 3.359375 -4.140625 C 2.679688 -5.554688 2.34375 -7.023438 2.34375 -8.546875 C 2.34375 -11.460938 3.082031 -13.851562 4.5625 -15.71875 C 6.039062 -17.59375 7.8125 -19.050781 9.875 -20.09375 C 11.945312 -21.132812 14.613281 -22.222656 17.875 -23.359375 L 17.875 -27.140625 C 17.875 -28.222656 17.707031 -29.046875 17.375 -29.609375 C 17.050781 -30.179688 16.476562 -30.46875 15.65625 -30.46875 C 14.832031 -30.46875 14.242188 -30.207031 13.890625 -29.6875 C 13.546875 -29.164062 13.351562 -28.425781 13.3125 -27.46875 L 13.046875 -24.71875 L 3.125 -25.109375 C 3.300781 -29.640625 4.5 -32.976562 6.71875 -35.125 C 8.9375 -37.28125 12.242188 -38.359375 16.640625 -38.359375 C 20.335938 -38.359375 23.160156 -37.320312 25.109375 -35.25 C 27.066406 -33.1875 28.046875 -30.4375 28.046875 -27 L 28.046875 -9.390625 C 28.046875 -5.566406 28.265625 -2.4375 28.703125 0 L 19.171875 0 C 18.785156 -2.914062 18.503906 -4.695312 18.328125 -5.34375 C 17.804688 -3.601562 16.9375 -2.164062 15.71875 -1.03125 C 14.5 0.09375 12.957031 0.65625 11.09375 0.65625 Z M 14.875 -6.53125 C 15.957031 -6.53125 16.957031 -7.160156 17.875 -8.421875 L 17.875 -18.71875 C 15.914062 -17.59375 14.4375 -16.410156 13.4375 -15.171875 C 12.4375 -13.929688 11.9375 -12.421875 11.9375 -10.640625 C 11.9375 -9.367188 12.195312 -8.363281 12.71875 -7.625 C 13.238281 -6.894531 13.957031 -6.53125 14.875 -6.53125 Z M 14.875 -6.53125 "/></g></g></g><g fill="#ffffff" fill-opacity="1"><g transform="translate(166.394727, 74.117367)"><g/></g></g><g fill="#ffffff" fill-opacity="1"><g transform="translate(183.094722, 74.117367)"><g><path d="M 3.921875 -52.84375 L 35.546875 -52.84375 L 35.546875 0 L 24.078125 0 L 24.078125 -44.484375 L 15.390625 -44.484375 L 15.390625 0 L 3.921875 0 Z M 3.921875 -52.84375 "/></g></g></g><g fill="#ffffff" fill-opacity="1"><g transform="translate(222.561517, 74.117367)"><g><path d="M 15.71875 0.65625 C 11.59375 0.65625 8.363281 -0.382812 6.03125 -2.46875 C 3.707031 -4.5625 2.546875 -7.628906 2.546875 -11.671875 L 2.546875 -26.03125 C 2.546875 -30.070312 3.707031 -33.132812 6.03125 -35.21875 C 8.363281 -37.3125 11.59375 -38.359375 15.71875 -38.359375 C 19.851562 -38.359375 23.09375 -37.300781 25.4375 -35.1875 C 27.789062 -33.082031 28.96875 -30.03125 28.96875 -26.03125 L 28.96875 -11.671875 C 28.96875 -7.671875 27.789062 -4.613281 25.4375 -2.5 C 23.09375 -0.394531 19.851562 0.65625 15.71875 0.65625 Z M 15.78125 -6.390625 C 16.78125 -6.390625 17.476562 -6.769531 17.875 -7.53125 C 18.269531 -8.289062 18.46875 -9.429688 18.46875 -10.953125 L 18.46875 -26.75 C 18.46875 -28.269531 18.269531 -29.410156 17.875 -30.171875 C 17.476562 -30.929688 16.78125 -31.3125 15.78125 -31.3125 C 14.78125 -31.3125 14.070312 -30.921875 13.65625 -30.140625 C 13.25 -29.359375 13.046875 -28.226562 13.046875 -26.75 L 13.046875 -10.953125 C 13.046875 -9.429688 13.25 -8.289062 13.65625 -7.53125 C 14.070312 -6.769531 14.78125 -6.390625 15.78125 -6.390625 Z M 15.78125 -6.390625 "/></g></g></g><g fill="#ffffff" fill-opacity="1"><g transform="translate(254.069704, 74.117367)"><g><path d="M 3.390625 -37.703125 L 11.21875 -37.703125 L 18.921875 -19.640625 L 26.6875 -37.703125 L 34.515625 -37.703125 L 34.640625 0 L 26.359375 0 L 26.359375 -19.828125 L 20.546875 -5.875 L 17.421875 -5.875 L 11.546875 -19.890625 L 11.546875 0 L 3.265625 0 Z M 3.390625 -37.703125 "/></g></g></g><g fill="#ffffff" fill-opacity="1"><g transform="translate(292.036098, 74.117367)"><g><path d="M 15.71875 0.65625 C 11.59375 0.65625 8.363281 -0.382812 6.03125 -2.46875 C 3.707031 -4.5625 2.546875 -7.628906 2.546875 -11.671875 L 2.546875 -26.03125 C 2.546875 -30.070312 3.707031 -33.132812 6.03125 -35.21875 C 8.363281 -37.3125 11.59375 -38.359375 15.71875 -38.359375 C 19.851562 -38.359375 23.09375 -37.300781 25.4375 -35.1875 C 27.789062 -33.082031 28.96875 -30.03125 28.96875 -26.03125 L 28.96875 -11.671875 C 28.96875 -7.671875 27.789062 -4.613281 25.4375 -2.5 C 23.09375 -0.394531 19.851562 0.65625 15.71875 0.65625 Z M 15.78125 -6.390625 C 16.78125 -6.390625 17.476562 -6.769531 17.875 -7.53125 C 18.269531 -8.289062 18.46875 -9.429688 18.46875 -10.953125 L 18.46875 -26.75 C 18.46875 -28.269531 18.269531 -29.410156 17.875 -30.171875 C 17.476562 -30.929688 16.78125 -31.3125 15.78125 -31.3125 C 14.78125 -31.3125 14.070312 -30.921875 13.65625 -30.140625 C 13.25 -29.359375 13.046875 -28.226562 13.046875 -26.75 L 13.046875 -10.953125 C 13.046875 -9.429688 13.25 -8.289062 13.65625 -7.53125 C 14.070312 -6.769531 14.78125 -6.390625 15.78125 -6.390625 Z M 15.78125 -6.390625 "/></g></g></g><g fill="#ffffff" fill-opacity="1"><g transform="translate(323.54429, 74.117367)"><g><path d="M 40.046875 0 L 3.125 0 L 3.125 -37.703125 L 13.046875 -37.703125 L 13.046875 -6.53125 L 18.0625 -6.53125 L 18.0625 -37.703125 L 27.984375 -37.703125 L 27.984375 -6.53125 L 33.015625 -6.53125 L 33.015625 -37.703125 L 42.921875 -37.703125 L 42.921875 -6.53125 L 48.34375 -6.53125 L 48.34375 10.234375 L 40.703125 10.234375 Z M 40.046875 0 "/></g></g></g></g></g></g></svg>